<mxfile host="app.diagrams.net" modified="2023-10-11T01:10:58.345Z" agent="Mozilla/5.0 (Windows NT 10.0; Win64; x64) AppleWebKit/537.36 (KHTML, like Gecko) Chrome/116.0.0.0 Safari/537.36" version="21.8.2" etag="thJIR6W-pkTt18OwVTKw" type="github">
  <diagram name="第 1 页" id="7QEAKkncvuG2l7mAs6VR">
    <mxGraphModel>
      <root>
        <mxCell id="0" />
        <mxCell id="1" parent="0" />
      </root>
    </mxGraphModel>
  </diagram>
</mxfile>
